<?xml version="1.0" encoding="utf-8"?>
<!-- Generator: Adobe Illustrator 19.0.0, SVG Export Plug-In . SVG Version: 6.00 Build 0)  -->
<svg version="1.1" xmlns="http://www.w3.org/2000/svg" xmlns:xlink="http://www.w3.org/1999/xlink" x="0px" y="0px"
	 viewBox="0 0 1080 1080" style="enable-background:new 0 0 1080 1080;" xml:space="preserve">
<style type="text/css">
	.st0{fill:#44B2E5;}
	.st1{fill:#FFFFFF;}
</style>
<g id="Layer_1">
</g>
<g id="Layer_2">
	<path id="XMLID_54_" class="st0" d="M893.9,233.3V867c0,36.6-29.7,66.3-66.3,66.3H194c-34.9,0-63.5-27-66.1-61.2
		c-0.1-1.7-0.2-3.3-0.2-5V233.3c0-36.6,29.7-66.3,66.3-66.3h633.7C864.2,167.1,893.9,196.7,893.9,233.3z"/>
	<g id="XMLID_31_">
		
			<rect id="XMLID_41_" x="136.7" y="577.6" transform="matrix(0.8776 -0.4793 0.4793 0.8776 -268.667 248.7195)" width="432.3" height="146"/>
		<g id="XMLID_35_">
			
				<rect id="XMLID_40_" x="580.7" y="349.9" transform="matrix(0.8776 -0.4793 0.4793 0.8776 -98.4386 431.9813)" width="432.3" height="117.9"/>
			
				<rect id="XMLID_39_" x="993.6" y="226.9" transform="matrix(0.8776 -0.4793 0.4793 0.8776 -17.9611 518.0593)" width="24.3" height="134.6"/>
			<polygon id="XMLID_38_" class="st1" points="712,498.8 650.9,486.7 675.7,429.3 736.8,441.4 			"/>
			<polygon id="XMLID_37_" class="st1" points="814.1,444.1 753,432 777.8,374.6 838.9,386.7 			"/>
			<polygon id="XMLID_36_" class="st1" points="917.7,387.5 856.6,375.4 881.4,318 942.5,330.1 			"/>
		</g>
		
			<rect id="XMLID_34_" x="554" y="363.1" transform="matrix(0.8776 -0.4793 0.4793 0.8776 -182.641 340.0883)" width="41.7" height="329.4"/>
		
			<rect id="XMLID_33_" x="208.2" y="691.6" transform="matrix(0.8776 -0.4793 0.4793 0.8776 -285.3421 276.7398)" class="st1" width="382.4" height="11.4"/>
		
			<rect id="XMLID_32_" x="147.5" y="580.4" transform="matrix(0.8776 -0.4793 0.4793 0.8776 -239.4919 234.0421)" class="st1" width="382.4" height="11.4"/>
	</g>
	<path id="XMLID_26_" d="M545,644.2L127.9,872c-0.1-1.7-0.2-3.3-0.2-5V676.9l335.2-183l5.7,10.4l1.9,3.4l5.5,10l55.2,101.1l5.5,10
		l1.9,3.5L545,644.2z"/>
</g>
</svg>
